<svg xmlns="http://www.w3.org/2000/svg" viewBox="0 0 64 64" width="64" height="64"><metadata><rdf:RDF xmlns:rdf="http://www.w3.org/1999/02/22-rdf-syntax-ns#" xmlns:dc="http://purl.org/dc/elements/1.1/"><rdf:Description><dc:creator>RealFaviconGenerator</dc:creator><dc:source>https://realfavicongenerator.net</dc:source></rdf:Description></rdf:RDF></metadata><defs>
    <linearGradient id="g" x1="0" y1="0" x2="64" y2="64" gradientUnits="userSpaceOnUse">
      <stop offset="0" stop-color="#d95f0f"></stop>
      <stop offset="1" stop-color="#c2410c"></stop>
    </linearGradient>
  </defs><circle cx="32" cy="32" r="31" fill="url(#g)"></circle><g transform="translate(15 15) scale(1.42)" fill="none" stroke="#ffffff" stroke-width="1.7" stroke-linecap="round" stroke-linejoin="round">
    <path d="M16.75 12h3.632a1 1 0 0 1 .894 1.447l-2.034 4.069a1 1 0 0 1-1.708.134l-2.124-2.97"></path>
    <path d="M17.106 9.053a1 1 0 0 1 .447 1.341l-3.106 6.211a1 1 0 0 1-1.341.447L3.61 12.3a2.92 2.92 0 0 1-1.3-3.91L3.69 5.6a2.92 2.92 0 0 1 3.92-1.3z"></path>
    <path d="M2 19h3.76a2 2 0 0 0 1.8-1.1L9 15"></path>
    <path d="M2 21v-4"></path>
    <path d="M7 9h.01"></path>
  </g></svg>